<?xml version="1.0" encoding="UTF-8"?>
<svg id="Camada_1" data-name="Camada 1" xmlns="http://www.w3.org/2000/svg" viewBox="0 0 400 152">
  <defs>
    <style>
      .cls-1 {
        fill: #fff;
        stroke-width: 0px;
      }
    </style>
  </defs>
  <path class="cls-1" d="M131.5,68.9c-28.72-37.06-75.28-37.06-104,0l-5.5,7.1,5.5,7.1c28.72,37.06,75.28,37.06,104,0l5.5-7.1-5.5-7.1ZM101.15,75.41c.2,5.7-1.83,11.14-5.71,15.31-3.89,4.18-9.17,6.59-14.87,6.79-.26,0-.52.01-.78.01-5.41,0-10.57-2.03-14.53-5.73-3.17-2.95-5.34-6.72-6.28-10.93-.11-.51.21-1.02.72-1.13.25-.06.5-.01.71.12.21.13.36.35.42.59.86,3.83,2.84,7.27,5.72,9.96,3.8,3.54,8.76,5.39,13.96,5.21,5.2-.18,10.01-2.38,13.55-6.19,3.54-3.8,5.39-8.76,5.21-13.96-.19-5.2-2.38-10.01-6.19-13.55-3.81-3.54-8.74-5.39-13.96-5.21-5.19.18-10.01,2.38-13.55,6.19-.86.92-1.63,1.93-2.29,2.99-.28.44-.87.58-1.31.3-.21-.13-.36-.34-.42-.59-.06-.25-.01-.5.12-.72.72-1.16,1.57-2.27,2.51-3.28,3.89-4.17,9.17-6.59,14.87-6.79,5.72-.2,11.14,1.83,15.31,5.71,4.17,3.89,6.59,9.17,6.79,14.87ZM84.88,74.3c1.16,0,2.16-.64,2.68-1.59.49,1.05.76,2.23.76,3.46,0,4.56-3.7,8.26-8.26,8.26s-8.26-3.7-8.26-8.26,3.7-8.26,8.26-8.26c1.18,0,2.29.25,3.31.69-.92.53-1.54,1.51-1.54,2.65,0,1.68,1.37,3.05,3.05,3.05ZM85.64,69.06c.18.04.34.09.47.15l.08.82c-.14-.06-.3-.12-.48-.16s-.36-.06-.55-.06c-.13,0-.23,0-.3.03-.07.02-.12.04-.15.07-.03.03-.04.07-.04.12h0c0,.06.02.1.05.14.03.04.09.08.18.12.09.04.21.08.37.14.23.07.43.15.58.23.16.08.28.18.36.31s.12.3.12.51v.04c0,.35-.11.62-.34.8-.14.11-.36.18-.6.22v.51h-.79v-.48s-.08,0-.11,0c-.14-.02-.27-.05-.38-.08-.12-.03-.22-.06-.31-.1l-.08-.88c.14.06.31.12.51.17.19.05.4.08.61.08.19,0,.32-.02.4-.06.08-.04.11-.1.11-.19h0c0-.07-.02-.12-.05-.16-.04-.04-.1-.07-.18-.11s-.2-.08-.35-.12c-.23-.07-.43-.16-.59-.24-.16-.09-.28-.2-.36-.33s-.12-.3-.12-.51v-.04c0-.32.11-.56.33-.73.15-.11.35-.17.58-.21v-.49h.79v.49c.07,0,.17,0,.23.02ZM82.06,63.07c-3.53-.42-6.97.56-9.74,2.75-2.77,2.19-4.53,5.33-4.95,8.84-.41,3.5.56,6.96,2.75,9.74,2.19,2.78,5.33,4.54,8.83,4.95,2.71.32,5.41-.19,7.81-1.48,2.34-1.26,4.23-3.17,5.46-5.51.24-.46.81-.64,1.28-.4.23.12.39.32.47.56.08.24.05.5-.07.72-1.41,2.68-3.57,4.86-6.24,6.3-2.19,1.18-4.66,1.8-7.13,1.8-.6,0-1.21-.04-1.8-.11-4.01-.47-7.59-2.48-10.09-5.66-2.5-3.17-3.62-7.13-3.15-11.13.48-4.01,2.48-7.6,5.65-10.1,3.17-2.5,7.13-3.62,11.14-3.14,5.64.67,10.38,4.38,12.38,9.7.09.24.08.49-.02.72-.1.23-.29.41-.53.5-.49.19-1.04-.06-1.22-.55-1.75-4.65-5.9-7.9-10.83-8.48ZM101.43,97.54c-5.71,5.71-13.3,8.85-21.37,8.85s-15.66-3.14-21.37-8.85c-5.71-5.71-8.85-13.3-8.85-21.37s3.14-15.66,8.85-21.37c5.71-5.71,13.3-8.85,21.37-8.85,1.15,0,2.31.06,3.44.19.25.03.48.15.63.35.16.2.23.45.2.7-.03.25-.15.47-.35.63-.2.16-.45.24-.7.2-1.07-.12-2.15-.18-3.23-.18-7.57,0-14.68,2.95-20.03,8.3-5.35,5.35-8.3,12.47-8.3,20.03s2.95,14.68,8.3,20.03c5.35,5.35,12.47,8.3,20.03,8.3s14.68-2.95,20.03-8.3c5.35-5.35,8.3-12.46,8.3-20.03,0-6.16-1.94-12.01-5.61-16.93-.15-.2-.22-.46-.18-.71.04-.25.17-.47.37-.62.2-.15.45-.21.7-.18.25.04.47.17.62.37,3.92,5.25,5.99,11.5,5.99,18.06,0,8.07-3.14,15.66-8.85,21.37Z"/>
  <g>
    <g>
      <path class="cls-1" d="M203.16,80.62l-6.2-10.46h-.04l-4.34-7.36-8.09-13.63-18.54,31.44h-10.76l23.34-38.85c1.09-1.82,3.06-2.93,5.18-2.93h5.7l25.1,41.79h-11.37Z"/>
      <path class="cls-1" d="M253.42,36.4h9.24v24.69c0,13.69-6.87,20.13-24.26,20.13s-24.26-6.45-24.26-20.13v-24.69h9.79v24.69c0,7.85,3.41,10.83,14.77,10.83s14.71-2.98,14.71-10.83v-24.69Z"/>
      <path class="cls-1" d="M266.07,36.4h11.55l18.48,31.57,18.41-31.57h10.88l-25.1,41.79h-9.12l-25.1-41.79Z"/>
      <path class="cls-1" d="M337.96,68.7v-9.19h22.99c4.62,0,7.35-2.74,7.35-6.81s-2.74-6.81-7.35-6.81h-22v34.73h-9.42v-44.21h31.43c10.45,0,16.59,6.2,16.59,16s-6.14,16.3-16.59,16.3h-22.99Z"/>
    </g>
    <g>
      <g>
        <path class="cls-1" d="M291.39,115.14l7.53-24.07h4.93l7.55,24.07h-3.16l-6.61-21.96h-.47l-6.61,21.96h-3.16ZM295.91,108.04v-2.6h10.96v2.6h-10.96Z"/>
        <path class="cls-1" d="M322.51,115.6c-1.82,0-3.35-.37-4.58-1.1-1.23-.73-2.16-1.8-2.78-3.21-.62-1.41-.93-3.11-.93-5.1v-5.69c0-3.16.81-5.6,2.44-7.3,1.63-1.7,4.02-2.55,7.17-2.55,1.13,0,2.16.09,3.08.27.92.18,1.74.42,2.46.72.72.3,1.33.61,1.85.93l.28,2.82c-.87-.55-1.89-1.04-3.06-1.45s-2.53-.62-4.08-.62c-2.34,0-4.08.62-5.23,1.86s-1.72,3.03-1.72,5.37v5.61c0,2.16.51,3.83,1.52,5,1.01,1.17,2.53,1.76,4.55,1.76,1.03,0,1.91-.18,2.65-.53.73-.35,1.34-.82,1.81-1.39.47-.58.81-1.21,1.03-1.9v-5.93l.51,1.11h-5.67v-2.6h8.21v9.51l-3.07-.02c-.2.78-.55,1.51-1.04,2.18s-1.17,1.22-2.05,1.63c-.88.41-1.99.61-3.33.61ZM329.08,110.17h2.92v4.97h-3.05l.13-4.97Z"/>
        <path class="cls-1" d="M337.97,115.14v-24.07h3.07v12.87l.02,1.19v10.02h-3.09ZM352.01,115.14l-.68-4.94c-.13-.93-.34-1.74-.64-2.42s-.76-1.22-1.38-1.61c-.62-.39-1.5-.58-2.65-.58l-6.54-.02v-2.47l6.99-.02c1.64,0,2.82-.4,3.52-1.21.7-.81,1.05-1.91,1.05-3.31v-.57c0-1.38-.36-2.45-1.07-3.21s-1.91-1.14-3.58-1.14h-7.01v-2.58h7.42c2.59,0,4.47.57,5.64,1.7,1.17,1.14,1.76,2.7,1.76,4.7v.64c0,1.57-.37,2.85-1.11,3.85-.74,1-1.97,1.6-3.69,1.82v.38l-1.34-.47c1.39.1,2.47.4,3.23.91.76.51,1.32,1.2,1.67,2.08.35.88.62,1.93.81,3.17l.81,5.29h-3.22Z"/>
        <path class="cls-1" d="M368.69,115.6c-3.04,0-5.35-.84-6.93-2.51-1.58-1.68-2.37-4.08-2.37-7.21v-5.56c0-3.11.79-5.51,2.37-7.19,1.58-1.68,3.89-2.51,6.93-2.51s5.35.84,6.93,2.51c1.58,1.68,2.37,4.07,2.37,7.19v5.56c0,3.13-.79,5.53-2.37,7.21-1.58,1.68-3.89,2.51-6.93,2.51ZM368.69,112.98c2.04,0,3.57-.61,4.6-1.82,1.03-1.21,1.54-2.93,1.54-5.15v-5.82c0-2.22-.51-3.94-1.54-5.14-1.03-1.21-2.56-1.81-4.6-1.81s-3.55.6-4.58,1.81c-1.03,1.21-1.54,2.92-1.54,5.14v5.82c0,2.22.51,3.94,1.54,5.15,1.03,1.21,2.56,1.82,4.58,1.82Z"/>
      </g>
      <path class="cls-1" d="M155,101.39h0s127.43,0,127.43,0v3.84h-122.91c-2.49,0-4.51-1.72-4.51-3.84Z"/>
    </g>
  </g>
</svg>